<?xml version="1.0" encoding="UTF-8"?>
<svg xmlns="http://www.w3.org/2000/svg" width="512" height="512" viewBox="0 0 512 512"><g><path d="M476,64H36A28.031,28.031,0,0,0,8,92V396a28.031,28.031,0,0,0,28,28H189.39l-11.42,40H144a8,8,0,0,0-8,8v24a8,8,0,0,0,8,8H368a8,8,0,0,0,8-8V472a8,8,0,0,0-8-8H334.03l-11.42-40H476a28.031,28.031,0,0,0,28-28V92A28.031,28.031,0,0,0,476,64ZM360,480v8H152v-8ZM194.61,464l11.42-40h99.94l11.42,40ZM488,396a12.01,12.01,0,0,1-12,12H36a12.01,12.01,0,0,1-12-12V376H488Zm0-36H24V92A12.01,12.01,0,0,1,36,80H476a12.01,12.01,0,0,1,12,12Z"/><path d="M48,160H80a8,8,0,0,0,8-8V120a8,8,0,0,0-8-8H48a8,8,0,0,0-8,8v32A8,8,0,0,0,48,160Zm8-32H72v16H56Z"/><path d="M48,216H80a8,8,0,0,0,8-8V176a8,8,0,0,0-8-8H48a8,8,0,0,0-8,8v32A8,8,0,0,0,48,216Zm8-32H72v16H56Z"/><path d="M48,272H80a8,8,0,0,0,8-8V232a8,8,0,0,0-8-8H48a8,8,0,0,0-8,8v32A8,8,0,0,0,48,272Zm8-32H72v16H56Z"/><path d="M48,328H80a8,8,0,0,0,8-8V288a8,8,0,0,0-8-8H48a8,8,0,0,0-8,8v32A8,8,0,0,0,48,328Zm8-32H72v16H56Z"/><path d="M432,160h32a8,8,0,0,0,8-8V120a8,8,0,0,0-8-8H432a8,8,0,0,0-8,8v32A8,8,0,0,0,432,160Zm8-32h16v16H440Z"/><path d="M432,216h32a8,8,0,0,0,8-8V176a8,8,0,0,0-8-8H432a8,8,0,0,0-8,8v32A8,8,0,0,0,432,216Zm8-32h16v16H440Z"/><path d="M432,272h32a8,8,0,0,0,8-8V232a8,8,0,0,0-8-8H432a8,8,0,0,0-8,8v32A8,8,0,0,0,432,272Zm8-32h16v16H440Z"/><path d="M432,328h32a8,8,0,0,0,8-8V288a8,8,0,0,0-8-8H432a8,8,0,0,0-8,8v32A8,8,0,0,0,432,328Zm8-32h16v16H440Z"/><path d="M168.061,269.99l-15.216,30.432A8,8,0,0,0,160,312h80a8,8,0,0,0,7.155-11.578L225.343,256.8a63.954,63.954,0,1,0-57.282,13.192Zm59,26.01H172.944l12.013-24.024a63.607,63.607,0,0,0,26.9-6.367ZM193.41,255.068,200,241.889l4.705,9.41A47.658,47.658,0,0,1,193.41,255.068ZM184,160a47.977,47.977,0,0,1,33.913,81.937l-10.758-21.515a8,8,0,0,0-14.31,0l-17.4,34.8A47.994,47.994,0,0,1,184,160Z"/><path d="M254.166,272.207l92.111,27.048a7.988,7.988,0,0,0,9.93-5.422l27.049-92.11a8,8,0,0,0-5.422-9.93l-92.111-27.048a8,8,0,0,0-9.93,5.422l-27.049,92.11a8,8,0,0,0,5.422,9.93Zm34.725-89.857,76.759,22.541L343.109,281.65,266.35,259.109Z"/><path d="M132.422,39.155l32,16A7.994,7.994,0,0,0,168,56H360a24,24,0,0,0,0-48H168a7.994,7.994,0,0,0-3.578.845l-32,16a8,8,0,0,0,0,14.31ZM368,32a8.009,8.009,0,0,1-8,8H192V24H360A8.009,8.009,0,0,1,368,32ZM169.889,24H176V40h-6.111l-16-8Z"/></g></svg>
